<?xml version="1.0" encoding="UTF-8" standalone="no"?>
<!-- Created with Inkscape (http://www.inkscape.org/) -->

<svg
   xmlns:dc="http://purl.org/dc/elements/1.1/"
   xmlns:cc="http://creativecommons.org/ns#"
   xmlns:rdf="http://www.w3.org/1999/02/22-rdf-syntax-ns#"
   xmlns:svg="http://www.w3.org/2000/svg"
   xmlns="http://www.w3.org/2000/svg"
   xmlns:sodipodi="http://sodipodi.sourceforge.net/DTD/sodipodi-0.dtd"
   xmlns:inkscape="http://www.inkscape.org/namespaces/inkscape"
   width="160"
   height="160"
   viewBox="0 0 42.333332 42.333335"
   version="1.1"
   id="svg8"
   inkscape:version="0.92.4 (5da689c313, 2019-01-14)"
   sodipodi:docname="Bootstrap_Materialize.svg">
  <defs
     id="defs2" />
  <sodipodi:namedview
     id="base"
     pagecolor="#ffffff"
     bordercolor="#666666"
     borderopacity="1.0"
     inkscape:pageopacity="0.0"
     inkscape:pageshadow="2"
     inkscape:zoom="5.09375"
     inkscape:cx="80"
     inkscape:cy="80"
     inkscape:document-units="px"
     inkscape:current-layer="g2312"
     showgrid="false"
     units="px"
     inkscape:snap-global="false"
     inkscape:window-width="1920"
     inkscape:window-height="1051"
     inkscape:window-x="-9"
     inkscape:window-y="-9"
     inkscape:window-maximized="1" />
  <metadata
     id="metadata5">
    <rdf:RDF>
      <cc:Work
         rdf:about="">
        <dc:format>image/svg+xml</dc:format>
        <dc:type
           rdf:resource="http://purl.org/dc/dcmitype/StillImage" />
        <dc:title></dc:title>
      </cc:Work>
    </rdf:RDF>
  </metadata>
  <g
     inkscape:label="Ebene 1"
     inkscape:groupmode="layer"
     id="layer1"
     transform="translate(0,-254.66665)">
    <path
       style="opacity:1;fill:#fabb69;fill-opacity:1;fill-rule:nonzero;stroke:#000000;stroke-width:0.00980582;stroke-miterlimit:4;stroke-dasharray:none;stroke-opacity:1"
       d="M 7.4878681,257.3726 H 17.77995 c 3.159422,0 2.563355,2.77332 2.697814,5.9576 0.09497,2.24908 -0.137166,1.93148 -0.05093,4.94399 0.09691,3.38553 -0.0478,5.27632 -3.207155,5.29546 l -8.4075197,0.0509 c -3.1593626,0.0191 -4.7609854,-0.81432 -4.6333087,-3.97116 0.076633,-1.89489 -0.00736,-4.52753 0.050931,-6.98135 0.075231,-3.16461 0.098668,-5.29546 3.2580886,-5.29546 z"
       id="rect836"
       inkscape:connector-curvature="0"
       sodipodi:nodetypes="cssssssssc" />
    <g
       id="g2312"
       transform="translate(-0.2597137,-0.93496933)">
      <g
         id="g2320"
         transform="matrix(0.98058198,0,0,0.98058198,-29.217806,-13.664781)">
        <path
           style="fill:#ffffff;fill-opacity:1;stroke:none;stroke-width:0.26458332px;stroke-linecap:butt;stroke-linejoin:miter;stroke-opacity:1"
           d="m 39.216769,280.53414 -0.05194,9.76523 c 3.49326,-0.0215 7.838484,0.54919 8.155009,-2.64908 -0.02473,-2.01425 -0.997779,-2.07324 -1.921881,-2.54519 0.680308,-0.68012 1.697275,-1.71518 1.298569,-2.59714 -1.062204,-2.34966 -3.441119,-2.2218 -7.479757,-1.97382 z"
           id="path826"
           inkscape:connector-curvature="0"
           sodipodi:nodetypes="ccccac" />
        <path
           style="fill:#fabb69;fill-opacity:1;stroke:none;stroke-width:0.28282356px;stroke-linecap:butt;stroke-linejoin:miter;stroke-opacity:1"
           d="m 40.727336,282.09243 -0.05935,2.23354 c 0.107727,0.0629 4.234401,0.3919 4.21395,-1.0908 -0.02689,-1.94953 -3.957774,-1.07196 -4.154602,-1.14274 z"
           id="path828"
           inkscape:connector-curvature="0"
           sodipodi:nodetypes="ccscc" />
        <path
           sodipodi:nodetypes="ccsc"
           inkscape:connector-curvature="0"
           id="path830"
           d="m 40.755451,286.101 -0.06757,2.54298 c 0.122652,0.0716 4.820268,0.44621 4.797769,-1.24192 -0.03062,-2.29673 -4.506101,-1.30106 -4.730199,-1.30106 z"
           style="fill:#fabb69;fill-opacity:1;stroke:none;stroke-width:0.32200718px;stroke-linecap:butt;stroke-linejoin:miter;stroke-opacity:1" />
      </g>
      <g
         id="g2353"
         transform="matrix(0.8836503,0.02425531,-0.02425531,0.8836503,11.301465,31.977425)">
        <path
           style="fill:#fad996;fill-opacity:1;stroke:none;stroke-width:0.26674178px;stroke-linecap:butt;stroke-linejoin:miter;stroke-opacity:1"
           d="m 29.823434,288.81884 c -0.269515,-2.88635 0.688623,-5.44545 1.959814,-7.92109 1.094999,1.11507 2.061485,3.14085 2.595428,8.23173 -0.698312,2.96508 -1.135874,6.84766 -2.489493,7.50692 -0.653271,-1.20072 -1.306542,-4.74782 -1.959813,-7.61047"
           id="path2345"
           inkscape:connector-curvature="0"
           sodipodi:nodetypes="ccccc" />
        <path
           sodipodi:nodetypes="ccccc"
           inkscape:connector-curvature="0"
           id="path2335"
           d="m 20.829038,289.0008 c -0.264299,-2.89587 0.675295,-5.46342 1.921882,-7.94723 1.073806,1.11875 2.021585,3.15121 2.545194,8.25889 -0.684796,2.97487 -1.113889,6.87027 -2.441309,7.5317 -0.640627,-1.20468 -1.281254,-4.76349 -1.921881,-7.63559"
           style="fill:#fad996;fill-opacity:1;stroke:none;stroke-width:0.26458332px;stroke-linecap:butt;stroke-linejoin:miter;stroke-opacity:1" />
        <path
           sodipodi:nodetypes="ccccc"
           inkscape:connector-curvature="0"
           id="path2337"
           d="m 31.645266,296.56015 c 1.410814,-1.87409 1.093199,-6.42055 2.769851,-7.94239 l 4.415874,-0.0803 c -2.820369,0.47461 -1.090697,5.16923 -2.863598,8.17484 -1.440718,-0.0507 -3.01167,0.2215 -4.322127,-0.15217 z"
           style="fill:#fabb69;fill-opacity:1;stroke:none;stroke-width:0.27723259px;stroke-linecap:butt;stroke-linejoin:miter;stroke-opacity:1" />
        <path
           sodipodi:nodetypes="cscccc"
           inkscape:connector-curvature="0"
           id="path2339"
           d="m 14.180368,296.99998 c -0.206972,-0.73764 -0.649107,-1.18616 -0.812222,-1.77131 -1.269053,-4.55252 -1.109848,-5.00702 -2.512113,-5.76038 l 4.778732,0.10388 0.415542,0.88303 z"
           style="fill:#fad996;fill-opacity:1;stroke:none;stroke-width:0.26458332px;stroke-linecap:butt;stroke-linejoin:miter;stroke-opacity:1" />
        <path
           sodipodi:nodetypes="ccccc"
           inkscape:connector-curvature="0"
           id="path2343"
           d="m 22.854806,296.79222 4.674847,-0.15582 c 1.493558,-3.76565 3.050172,-14.83079 4.570961,-15.73865 l -4.830675,0.0519 c -2.348783,4.85899 -2.516352,12.06104 -4.415133,15.84257 z"
           style="fill:#fabb69;fill-opacity:1;stroke:none;stroke-width:0.26458332px;stroke-linecap:butt;stroke-linejoin:miter;stroke-opacity:1" />
        <path
           sodipodi:nodetypes="ccccc"
           inkscape:connector-curvature="0"
           id="path2333"
           d="m 13.712883,296.89609 4.674847,-0.15582 c 1.493558,-3.76565 3.050172,-14.83079 4.570961,-15.73865 l -4.830675,0.0519 c -2.348783,4.85899 -2.516352,12.06104 -4.415133,15.84257 z"
           style="fill:#fabb69;fill-opacity:1;stroke:none;stroke-width:0.26458332px;stroke-linecap:butt;stroke-linejoin:miter;stroke-opacity:1" />
      </g>
    </g>
  </g>
</svg>
