<?xml version="1.0" encoding="UTF-8" standalone="no"?>
<!-- Created with Inkscape (http://www.inkscape.org/) -->

<svg
   xmlns:dc="http://purl.org/dc/elements/1.1/"
   xmlns:cc="http://creativecommons.org/ns#"
   xmlns:rdf="http://www.w3.org/1999/02/22-rdf-syntax-ns#"
   xmlns:svg="http://www.w3.org/2000/svg"
   xmlns="http://www.w3.org/2000/svg"
   xmlns:sodipodi="http://sodipodi.sourceforge.net/DTD/sodipodi-0.dtd"
   xmlns:inkscape="http://www.inkscape.org/namespaces/inkscape"
   width="210mm"
   height="297mm"
   viewBox="0 0 210 297"
   version="1.1"
   id="svg831"
   inkscape:version="0.92.4 (5da689c313, 2019-01-14)"
   sodipodi:docname="V.svg">
  <defs
     id="defs825" />
  <sodipodi:namedview
     id="base"
     pagecolor="#ffffff"
     bordercolor="#666666"
     borderopacity="1.0"
     inkscape:pageopacity="0.0"
     inkscape:pageshadow="2"
     inkscape:zoom="0.72604517"
     inkscape:cx="396.85039"
     inkscape:cy="470.50262"
     inkscape:document-units="mm"
     inkscape:current-layer="layer1"
     showgrid="false"
     inkscape:window-width="1920"
     inkscape:window-height="1051"
     inkscape:window-x="-9"
     inkscape:window-y="-9"
     inkscape:window-maximized="1" />
  <metadata
     id="metadata828">
    <rdf:RDF>
      <cc:Work
         rdf:about="">
        <dc:format>image/svg+xml</dc:format>
        <dc:type
           rdf:resource="http://purl.org/dc/dcmitype/StillImage" />
        <dc:title></dc:title>
      </cc:Work>
    </rdf:RDF>
  </metadata>
  <g
     inkscape:label="Ebene 1"
     inkscape:groupmode="layer"
     id="layer1">
    <path
       style="opacity:1;fill:#0a0a0a;fill-opacity:1;stroke:none;stroke-width:0.07648783;stroke-miterlimit:4;stroke-dasharray:none;stroke-opacity:1"
       d="m 207.56567,148.50001 h -71.99482 c 1.26187,9.16774 -6.79322,20.92608 -16.27188,27.17044 l 2.31957,3.9216 c 10.15448,-6.60217 18.55178,-18.62302 18.5423,-29.23534 l 62.50398,4.28659 c -3.17686,34.49046 -21.58426,63.38332 -48.57263,79.85121 l 2.31957,3.92165 c 29.84905,-18.18274 49.53146,-50.85626 51.15391,-89.91615 m -10.03756,11.56837 -4.41934,-0.60198 c -1.80185,12.56497 -5.95439,24.28239 -11.9934,34.6758 l -42.01385,-26.19752 c -0.41863,0.68587 -0.8572,1.36386 -1.31438,2.03244 l 40.62591,28.53693 c -7.50695,11.43464 -17.39122,21.05097 -28.95995,28.13728 l 2.31957,3.92158 c 24.26912,-14.83591 41.36885,-40.23481 45.75544,-70.50453 z m -8.83869,-1.20395 -22.09676,-3.00989 c -0.4705,3.6414 -1.28168,7.22067 -2.39704,10.70025 l -21.11479,-7.13498 c -0.23741,0.72746 -0.50012,1.45249 -0.78688,2.17377 3.51781,1.4295 24.2041,9.83573 20.68629,8.40623 -0.87603,2.27261 -1.88184,4.49541 -3.00657,6.65722 l 3.93549,2.15851 c 1.19875,-2.31395 2.27181,-4.69586 3.20832,-7.13451 l 4.13728,1.68127 c 0.49852,-1.30239 0.96123,-2.62069 1.38677,-3.95348 l -4.22297,-1.42698 c 0.79734,-2.49271 1.45273,-5.03658 1.9554,-7.62063 l 17.45602,3.54951 c 0.33203,-1.66556 0.61881,-3.34818 0.85944,-5.04629 z m -16.7585,41.05448 c -10.00652,-1.67689 -19.47184,-4.78887 -28.0862,-9.09299 l -12.34944,-13.36419 c -0.58426,0.5714 -1.18171,1.12795 -1.79098,1.66807 l 11.64233,14.00711 c 3.26605,9.2463 5.27389,19.21657 5.78694,29.59278 1.37536,-0.84429 2.72607,-1.7264 4.05083,-2.64501 -0.8993,-8.61639 -2.80295,-16.89901 -5.57404,-24.66361 7.22972,3.6444 15.06516,6.46748 23.32702,8.32849 1.03106,-1.24788 2.02936,-2.52526 2.99354,-3.83065 z m -40.85975,-51.4189 h -4.49968 c 1.62242,5.43122 -4.97924,14.57517 -11.9116,19.3272 l 2.31954,3.92166 c 8.20551,-5.49827 15.53387,-15.94939 14.09174,-23.24888 m 25.34059,89.91617 -37.11279,-62.74571 c -4.73932,3.12218 -9.83455,4.86589 -14.29898,4.21808 -4.46447,0.64781 -9.559744,-1.09593 -14.299091,-4.21817 l -2.319553,3.92166 c 5.375915,3.49527 11.244355,5.47182 16.618644,4.91656 4.77709,0.49357 9.94465,-1.01325 14.80966,-3.80907 l 29.43217,56.57077 c -13.1646,7.05052 -28.14288,11.26059 -44.24183,11.91871 -18.111437,-0.74037 -34.804486,-5.97628 -49.092463,-14.69459 l -2.319545,3.92161 c 14.924545,9.0914 32.390769,14.56014 51.412008,15.393 19.0211,-0.83286 36.48726,-6.30152 51.41177,-15.39285 z m -14.06526,-2.78603 -1.87495,-4.14958 c -10.82162,5.05485 -22.80024,8.03648 -35.47156,8.46837 l -7e-5,-7e-5 v -50.82028 c -0.69821,0.0516 -1.40085,0.0698 -2.10655,0.0566 l -3.280345,50.42381 C 85.368478,238.29397 72.115358,233.7375 60.546664,226.65114 l -2.31957,3.92158 c 13.651388,8.34527 29.571247,13.3484 46.772896,13.99622 13.37897,-0.50391 25.98253,-3.64236 37.34651,-8.93884 z m -3.74986,-8.29904 -9.37467,-20.74771 c -3.24325,1.54485 -6.60795,2.80249 -10.05757,3.7353 l -5.66049,-22.0676 c -0.71187,0.19018 -1.42475,0.35358 -2.13732,0.48712 0.73488,3.80982 5.05613,26.21346 4.32129,22.40364 -2.33476,0.47476 -4.70184,0.79962 -7.09039,0.96338 l 0.29817,4.58396 c 2.58397,-0.19139 5.13972,-0.55056 7.65643,-1.06664 l 0.86425,4.48075 c 1.34931,-0.27886 2.68717,-0.5984 4.01221,-0.95757 l -1.13207,-4.41353 c 2.4749,-0.67017 4.90536,-1.49159 7.28051,-2.45318 l 6.54976,16.99172 c 1.51096,-0.60506 3.00136,-1.25209 4.46985,-1.93964 z m -43.691194,7.09679 c -3.789084,-9.81637 -5.743575,-19.75066 -6.10018,-29.48485 l 5.559371,-17.34363 c -0.70854,-0.24371 -1.414731,-0.51353 -2.117209,-0.80796 l -6.549787,16.99164 c -6.352503,7.23989 -14.066239,13.6364 -22.83143,18.94653 1.375358,0.84435 2.775346,1.65089 4.198612,2.41822 7.062014,-4.81615 13.343234,-10.35216 18.664393,-16.46738 0.271447,8.19561 1.646254,16.54528 4.261372,24.865 1.622228,0.34118 3.260962,0.63531 4.914858,0.88243 z m 22.073984,-62.67901 -2.31954,-3.92166 c -3.46619,2.37607 -7.01504,3.65417 -9.6599,2.82128 -2.64489,0.83289 -6.193766,-0.44524 -9.659951,-2.82131 l -2.319573,3.92165 c 4.102775,2.74912 8.424844,4.26005 11.979524,3.51965 3.55466,0.7404 7.87669,-0.77053 11.97944,-3.51961 z m -63.391448,66.66714 37.112917,-62.74565 c -9.478628,-6.24432 -17.533657,-18.00263 -16.271781,-27.17035 -9e-6,-2e-5 -9e-6,-2e-5 -2.1e-5,-8e-5 h -4.499679 c 0,0 0,6e-5 0,8e-5 -1.021515,10.42288 6.754819,22.656 16.67956,29.87201 l -35.37366,53.08864 C 25.279612,213.55471 8.2959905,183.62534 6.9339623,148.50001 c 1.21e-5,-1.1e-4 1.21e-5,-1.9e-4 1.21e-5,-3.1e-4 l -4.4996711,-4e-5 c 0,1.6e-4 -1.21e-5,2.4e-4 -1.21e-5,3.5e-4 1.6224134,39.05981 21.3047518,71.73322 51.1536908,89.916 z m -4.1149,-13.89074 2.72371,-3.65208 C 42.849012,213.60464 34.923489,204.53538 28.884475,194.14197 L 70.8984,167.94456 c -0.418627,-0.68588 -0.817297,-1.37977 -1.194664,-2.08026 l -43.29056,23.7437 c -6.274865,-12.29933 -9.999134,-26.23913 -10.479844,-41.10799 0,-8e-5 8e-6,-1.9e-4 8e-6,-3.1e-4 h -4.499705 c 0,1.2e-4 0,2e-4 0,3.1e-4 1.121671,31.3984 15.649386,58.63756 38.039447,76.02526 z m 5.447401,-7.30421 13.618511,-18.2605 c -2.854475,-2.24423 -5.538801,-4.72574 -8.01641,-7.40695 L 76.7927,175.70392 c -0.556535,-0.5999 -1.098552,-1.21334 -1.624687,-1.83886 -2.899906,2.54095 -19.952696,17.48313 -17.052788,14.94212 -1.557172,-1.87347 -3.017048,-3.83012 -4.368824,-5.85885 l -3.69328,2.59426 c 1.439269,2.16709 2.993396,4.25511 4.651552,6.25304 l -3.410557,2.98846 c 0.879567,1.06119 1.786824,2.09809 2.720436,3.10937 l 3.254018,-3.16994 c 1.759466,1.905 3.617566,3.71438 5.56343,5.41689 l -11.642391,14.00708 c 1.215385,1.05859 2.459459,2.08362 3.730874,3.07357 z M 28.222438,182.9952 c 6.073858,-8.37345 13.108703,-15.51753 20.867808,-21.11438 l 17.194165,-4.64947 c -0.18534,-0.73094 -0.343875,-1.46287 -0.474396,-2.19448 l -17.456013,3.54949 c -9.361036,-1.54087 -18.771142,-4.82199 -27.920587,-10.08635 -1.4e-4,-8e-5 -2.84e-4,-1.6e-4 -4.35e-4,-2.8e-4 0,1.2e-4 0,2e-4 0,2.8e-4 0.05003,1.75473 0.149139,3.49672 0.29581,5.22449 7.807729,3.80938 15.745863,6.27608 23.635144,7.54074 -6.552537,4.68515 -12.608393,10.46003 -18.030647,17.1405 0.589288,1.5514 1.219441,3.08167 1.889126,4.58946 z m 64.798028,-11.24637 2.319573,-3.92165 C 88.40769,163.07513 81.80606,153.93123 83.428474,148.50001 c -1.5e-5,-2e-5 -1.5e-5,-2e-5 -1.5e-5,-2e-5 l -4.499676,-6e-5 c 0,6e-5 0,6e-5 0,8e-5 -1.442141,7.29947 5.886198,17.75055 14.091683,23.24882 z m -90.5861627,-23.24917 71.9947937,2.7e-4 c -1.261831,-9.16778 6.793284,-20.9261 16.271957,-27.17042 l -2.319536,-3.92166 c -10.154509,6.60218 -18.551825,18.62303 -18.542389,29.23536 L 7.335165,142.35644 C 10.512116,107.86595 28.919571,78.973123 55.90799,62.50536 L 53.588446,58.583707 C 23.739328,76.766371 4.0568252,109.43986 2.4343033,148.49966 Z m 10.0375777,-11.56827 4.419374,0.60193 c 1.801827,-12.5649 5.954395,-24.2824 11.993454,-34.6757 l 42.013803,26.19758 c 0.418625,-0.6859 0.857192,-1.36388 1.31436,-2.03241 L 31.587041,98.485738 C 39.093991,87.051119 48.978334,77.434863 60.547065,70.348541 L 58.227517,66.426888 C 33.958334,81.262822 16.858542,106.66165 12.471881,136.93139 Z m 8.838695,1.20394 22.096745,3.00992 c 0.470513,-3.64138 1.281717,-7.22064 2.397066,-10.70019 l 21.114794,7.13506 c 0.237402,-0.72749 0.500116,-1.4525 0.786868,-2.1738 -3.517789,-1.42952 -24.20407,-9.83577 -20.686266,-8.4063 0.876044,-2.2726 1.881846,-4.49537 3.006586,-6.65722 l -3.935486,-2.15853 c -1.198749,2.31399 -2.271807,4.6959 -3.208358,7.13451 l -4.137254,-1.68123 c -0.498528,1.30238 -0.961239,2.62067 -1.386792,3.95342 l 4.222965,1.42699 c -0.797335,2.4927 -1.452746,5.03659 -1.955401,7.62064 l -17.45602,-3.54955 c -0.331889,1.66559 -0.618806,3.34812 -0.859447,5.04628 z M 38.069167,97.080918 c 10.006508,1.676864 19.471819,4.788922 28.086193,9.093092 l 12.349392,13.36418 c 0.584273,-0.57141 1.181719,-1.12791 1.79099,-1.66812 L 68.653436,103.86296 C 65.387434,94.616707 63.37959,84.64639 62.866592,74.270194 c -1.375362,0.844287 -2.726088,1.726444 -4.050833,2.644955 0.899267,8.616485 2.802908,16.899057 5.573963,24.663661 -7.229721,-3.644453 -15.065132,-6.467482 -23.327014,-8.328531 -1.031046,1.247853 -2.029342,2.525215 -2.993541,3.830639 z m 40.859616,51.419012 4.499676,6e-5 c -1.622383,-5.43132 4.979309,-14.57522 11.911668,-19.32726 l -2.319535,-3.92165 c -8.205516,5.49824 -15.533918,15.94935 -14.091809,23.24885 z M 53.588446,58.583707 90.701054,121.32951 c 4.739313,-3.12215 9.834506,-4.86585 14.298936,-4.2181 4.46448,-0.64775 9.55977,1.09598 14.29912,4.21828 l 2.31958,-3.92166 c -5.37594,-3.49532 -11.2444,-5.47186 -16.6187,-4.91662 -4.77709,-0.49358 -9.944617,1.01327 -14.809611,3.80904 L 60.758359,59.729591 c 13.164577,-7.050439 28.142763,-11.260468 44.241631,-11.918576 18.1115,0.740366 34.80462,5.976306 49.09265,14.694736 l 2.31957,-3.921652 C 141.48761,49.492633 124.02129,44.02384 104.99999,43.190988 85.978954,44.02384 68.51289,49.492462 53.588446,58.583707 Z m 14.065238,2.786029 1.874936,4.149589 c 10.821564,-5.054755 22.800097,-8.036361 35.47137,-8.468255 1.2e-4,0 2.5e-4,0 3.1e-4,0 l -2.6e-4,50.82032 c 0.69826,-0.0516 1.4009,-0.0695 2.1066,-0.0567 l 3.28055,-50.423815 c 14.24454,1.315117 27.49764,5.871633 39.06629,12.958033 l 2.31959,-3.921574 C 138.12164,58.082015 122.20169,53.078836 104.99999,52.431036 91.621085,52.934883 79.017589,56.073301 67.653684,61.369776 Z m 3.749842,8.299084 9.374589,20.747728 c 3.243263,-1.544823 6.607989,-2.802457 10.057574,-3.735267 l 5.66044,22.067639 c 0.71189,-0.19018 1.424767,-0.3536 2.137315,-0.48715 -0.734853,-3.80978 -5.056035,-26.21352 -4.321199,-22.403607 2.334765,-0.474759 4.701838,-0.799613 7.090395,-0.963381 l -0.29817,-4.583957 c -2.583977,0.19138 -5.139742,0.550505 -7.656434,1.066536 l -0.86424,-4.480709 c -1.349308,0.278871 -2.687182,0.59837 -4.012228,0.957589 l 1.132083,4.413518 c -2.474924,0.670135 -4.905382,1.491602 -7.280536,2.453138 L 75.873422,67.729193 c -1.51099,0.605043 -3.001383,1.252044 -4.469867,1.939627 z m 43.691234,-7.09666 c 3.78903,9.816373 5.74351,19.750653 6.10007,29.484844 l -5.5594,17.343626 c 0.70854,0.24371 1.4147,0.51355 2.11719,0.80797 l 6.54982,-16.991646 c 6.35255,-7.23981 14.0663,-13.636298 22.83151,-18.946448 -1.37535,-0.844317 -2.77536,-1.65092 -4.19861,-2.418256 -7.06203,4.816152 -13.34328,10.352186 -18.66445,16.467371 -0.27145,-8.195618 -1.64621,-16.545324 -4.26131,-24.86502 -1.6222,-0.340799 -3.26094,-0.63538 -4.91482,-0.882441 z m -22.074168,62.67892 2.319535,3.92165 c 3.466173,-2.37603 7.014993,-3.65412 9.659863,-2.82122 2.64487,-0.8329 6.19377,0.44524 9.65998,2.82135 l 2.31958,-3.92166 c -4.10279,-2.74916 -8.42488,-4.26008 -11.97956,-3.51968 -3.55466,-0.7404 -7.876672,0.77049 -11.979398,3.51956 z m 63.391618,-66.666981 -37.1131,62.745591 c 9.47865,6.24438 17.53369,18.00275 16.27172,27.17045 h 4.4997 c 1.0216,-10.42283 -6.75472,-22.65603 -16.67945,-29.87211 l 35.37378,-53.088579 c 25.95574,17.906112 42.93932,47.835609 44.30115,82.961089 l 4.4997,4e-5 c -1.62225,-39.05995 -21.30454,-71.733565 -51.1535,-89.916481 z m 4.11486,13.890765 -2.72372,3.652134 c 9.34777,7.268508 17.27325,16.33781 23.31225,26.731212 l -42.01398,26.19731 c 0.41862,0.68587 0.81729,1.37982 1.19465,2.0803 l 43.29062,-23.74364 c 6.27488,12.29947 9.99911,26.23934 10.47975,41.10832 l 4.49972,4e-5 C 197.44485,117.10198 182.91715,89.862678 160.52707,72.474864 Z m -5.4474,7.304188 -13.61858,18.260534 c 2.85448,2.244234 5.53879,4.725704 8.01641,7.406904 l -16.27017,15.84966 c 0.55655,0.59985 1.09858,1.21334 1.6247,1.83886 2.8999,-2.54094 19.95274,-17.48308 17.05282,-14.94209 1.55715,1.87349 3.01704,3.83014 4.36881,5.85886 l 3.69328,-2.59421 c -1.43927,-2.16704 -2.99339,-4.25516 -4.65154,-6.25308 l 3.41057,-2.98843 c -0.87956,-1.06124 -1.78682,-2.09812 -2.72044,-3.109374 l -3.25402,3.169904 c -1.75945,-1.905 -3.61755,-3.714376 -5.56342,-5.416889 l 11.64244,-14.007026 c -1.21538,-1.058643 -2.45947,-2.083675 -3.73086,-3.073623 z m 26.69796,34.225988 c -6.07389,8.3734 -13.10876,15.51748 -20.86789,21.11424 l -17.19416,4.64945 c 0.1853,0.73093 0.34386,1.46294 0.47441,2.19448 l 17.456,-3.54938 c 9.36117,1.54091 18.77143,4.82211 27.92099,10.08662 -0.05,-1.75481 -0.14896,-3.49682 -0.29565,-5.2247 -7.80773,-3.80944 -15.74585,-6.27612 -23.63514,-7.5408 6.55255,-4.68514 12.60846,-10.46001 18.03069,-17.14049 -0.58928,-1.5514 -1.21942,-3.08169 -1.8891,-4.58942 z m -64.79808,11.24616 -2.31958,3.92166 c 6.93236,4.75211 13.534,13.89602 11.91149,19.32724 h 4.49968 c 1.44224,-7.29944 -5.88607,-17.75055 -14.09159,-23.2489 z"
       id="path1617"
       inkscape:connector-curvature="0" />
  </g>
</svg>
