<?xml version="1.0" encoding="UTF-8" standalone="no"?>
<!-- Created with Inkscape (http://www.inkscape.org/) -->

<svg
   xmlns:dc="http://purl.org/dc/elements/1.1/"
   xmlns:cc="http://creativecommons.org/ns#"
   xmlns:rdf="http://www.w3.org/1999/02/22-rdf-syntax-ns#"
   xmlns:svg="http://www.w3.org/2000/svg"
   xmlns="http://www.w3.org/2000/svg"
   xmlns:sodipodi="http://sodipodi.sourceforge.net/DTD/sodipodi-0.dtd"
   xmlns:inkscape="http://www.inkscape.org/namespaces/inkscape"
   width="800"
   height="800"
   viewBox="0 0 211.66666 211.66667"
   version="1.1"
   id="svg822"
   inkscape:version="0.92.4 (5da689c313, 2019-01-14)"
   sodipodi:docname="C4thy_Logo2Gold.svg">
  <defs
     id="defs816" />
  <sodipodi:namedview
     id="base"
     pagecolor="#ffffff"
     bordercolor="#666666"
     borderopacity="1.0"
     inkscape:pageopacity="0.0"
     inkscape:pageshadow="2"
     inkscape:zoom="1.01875"
     inkscape:cx="404.90798"
     inkscape:cy="389.20245"
     inkscape:document-units="px"
     inkscape:current-layer="layer1"
     showgrid="false"
     units="px"
     inkscape:window-width="1920"
     inkscape:window-height="1051"
     inkscape:window-x="-9"
     inkscape:window-y="-9"
     inkscape:window-maximized="1" />
  <metadata
     id="metadata819">
    <rdf:RDF>
      <cc:Work
         rdf:about="">
        <dc:format>image/svg+xml</dc:format>
        <dc:type
           rdf:resource="http://purl.org/dc/dcmitype/StillImage" />
        <dc:title></dc:title>
      </cc:Work>
    </rdf:RDF>
  </metadata>
  <g
     inkscape:label="Ebene 1"
     inkscape:groupmode="layer"
     id="layer1"
     transform="translate(0,-85.333316)">
    <path
       style="opacity:1;fill:#c69963;fill-opacity:1;stroke:none;stroke-width:0.07648783;stroke-miterlimit:4;stroke-dasharray:none;stroke-opacity:1"
       d="m 208.399,191.16666 h -71.99482 c 1.26187,9.16774 -6.79322,20.92608 -16.27188,27.17044 l 2.31957,3.9216 c 10.15448,-6.60217 18.55178,-18.62302 18.5423,-29.23534 l 62.50398,4.28659 c -3.17686,34.49046 -21.58426,63.38332 -48.57263,79.85121 l 2.31957,3.92165 c 29.84905,-18.18274 49.53146,-50.85626 51.15391,-89.91615 m -10.03756,11.56837 -4.41934,-0.60198 c -1.80185,12.56497 -5.95439,24.28239 -11.9934,34.6758 l -42.01385,-26.19752 c -0.41863,0.68587 -0.8572,1.36386 -1.31438,2.03244 l 40.62591,28.53693 c -7.50695,11.43464 -17.39122,21.05097 -28.95995,28.13728 l 2.31957,3.92158 c 24.26912,-14.83591 41.36885,-40.23481 45.75544,-70.50453 z m -8.83869,-1.20395 -22.09676,-3.00989 c -0.4705,3.6414 -1.28168,7.22067 -2.39704,10.70025 l -21.11479,-7.13498 c -0.23741,0.72746 -0.50012,1.45249 -0.78688,2.17377 3.51781,1.4295 24.2041,9.83573 20.68629,8.40623 -0.87603,2.27261 -1.88184,4.49541 -3.00657,6.65722 l 3.93549,2.15851 c 1.19875,-2.31395 2.27181,-4.69586 3.20832,-7.13451 l 4.13728,1.68127 c 0.49852,-1.30239 0.96123,-2.62069 1.38677,-3.95348 l -4.22297,-1.42698 c 0.79734,-2.49271 1.45273,-5.03658 1.9554,-7.62063 l 17.45602,3.54951 c 0.33203,-1.66556 0.61881,-3.34818 0.85944,-5.04629 z m -16.7585,41.05448 c -10.00652,-1.67689 -19.47184,-4.78887 -28.0862,-9.09299 l -12.34944,-13.36419 c -0.58426,0.5714 -1.18171,1.12795 -1.79098,1.66807 l 11.64233,14.00711 c 3.26605,9.2463 5.27389,19.21657 5.78694,29.59278 1.37536,-0.84429 2.72607,-1.7264 4.05083,-2.64501 -0.8993,-8.61639 -2.80295,-16.89901 -5.57404,-24.66361 7.22972,3.6444 15.06516,6.46748 23.32702,8.32849 1.03106,-1.24788 2.02936,-2.52526 2.99354,-3.83065 z m -40.85975,-51.4189 h -4.49968 c 1.62242,5.43122 -4.97924,14.57517 -11.9116,19.3272 l 2.31954,3.92166 c 8.20551,-5.49827 15.53387,-15.94939 14.09174,-23.24888 m 25.34059,89.91617 -37.11279,-62.74571 c -4.73932,3.12218 -9.83455,4.86589 -14.29898,4.21808 -4.46447,0.64781 -9.559743,-1.09593 -14.299089,-4.21817 l -2.319552,3.92166 c 5.375913,3.49527 11.244351,5.47182 16.618641,4.91656 4.77709,0.49357 9.94465,-1.01325 14.80966,-3.80907 l 29.43217,56.57077 c -13.1646,7.05052 -28.14288,11.26059 -44.24183,11.91871 -18.111436,-0.74037 -34.804485,-5.97628 -49.092461,-14.69459 l -2.319544,3.92161 c 14.924545,9.0914 32.390768,14.56014 51.412005,15.393 19.0211,-0.83286 36.48726,-6.30152 51.41177,-15.39285 z m -14.06526,-2.78603 -1.87495,-4.14958 c -10.82162,5.05485 -22.80024,8.03648 -35.47156,8.46837 l -7e-5,-7e-5 v -50.82028 c -0.69821,0.0516 -1.40085,0.0698 -2.10655,0.0566 l -3.28034,50.42381 C 86.201811,280.96062 72.948691,276.40415 61.379997,269.31779 l -2.319571,3.92158 c 13.651389,8.34527 29.571246,13.3484 46.772894,13.99622 13.37897,-0.50391 25.98253,-3.64236 37.34651,-8.93884 z m -3.74986,-8.29904 -9.37467,-20.74771 c -3.24325,1.54485 -6.60795,2.80249 -10.05757,3.7353 l -5.66049,-22.0676 c -0.71187,0.19018 -1.42475,0.35358 -2.13732,0.48712 0.73488,3.80982 5.05613,26.21346 4.32129,22.40364 -2.33476,0.47476 -4.70184,0.79962 -7.09039,0.96338 l 0.29817,4.58396 c 2.58397,-0.19139 5.13972,-0.55056 7.65643,-1.06664 l 0.86425,4.48075 c 1.34931,-0.27886 2.68717,-0.5984 4.01221,-0.95757 l -1.13207,-4.41353 c 2.4749,-0.67017 4.90536,-1.49159 7.28051,-2.45318 l 6.54976,16.99172 c 1.51096,-0.60506 3.00136,-1.25209 4.46985,-1.93964 z m -43.691192,7.09679 c -3.789085,-9.81637 -5.743575,-19.75066 -6.100181,-29.48485 l 5.559372,-17.34363 c -0.708541,-0.24371 -1.414732,-0.51353 -2.117209,-0.80796 l -6.549787,16.99164 c -6.352503,7.23989 -14.066239,13.6364 -22.83143,18.94653 1.375357,0.84435 2.775347,1.65089 4.198612,2.41822 7.062015,-4.81615 13.343234,-10.35216 18.664394,-16.46738 0.271446,8.19561 1.646253,16.54528 4.261371,24.865 1.622229,0.34118 3.260963,0.63531 4.914858,0.88243 z m 22.073982,-62.67901 -2.31954,-3.92166 c -3.46619,2.37607 -7.01504,3.65417 -9.6599,2.82128 -2.64489,0.83289 -6.193764,-0.44524 -9.659948,-2.82131 l -2.319573,3.92165 c 4.102774,2.74912 8.424841,4.26005 11.979521,3.51965 3.55466,0.7404 7.87669,-0.77053 11.97944,-3.51961 z m -63.391445,66.66714 37.112916,-62.74565 c -9.478629,-6.24432 -17.533657,-18.00263 -16.271782,-27.17035 -8e-6,-2e-5 -8e-6,-2e-5 -1.9e-5,-8e-5 h -4.499681 c 0,0 0,6e-5 0,8e-5 -1.021514,10.42288 6.75482,22.656 16.679561,29.87201 L 52.068651,274.12731 C 26.112944,256.22136 9.1293227,226.29199 7.7672946,191.16666 c 1.22e-5,-1.1e-4 1.22e-5,-1.9e-4 1.22e-5,-2.6e-4 l -4.4996712,-9e-5 c 0,1.6e-4 -1.21e-5,2.4e-4 -1.21e-5,3.5e-4 1.6224134,39.05981 21.3047515,71.73322 51.1536915,89.916 z m -4.114901,-13.89074 2.723711,-3.65208 C 43.682343,256.27129 35.756821,247.20203 29.717807,236.80862 l 42.013925,-26.19741 c -0.418626,-0.68588 -0.817298,-1.37977 -1.194665,-2.08026 l -43.290559,23.7437 c -6.274865,-12.29933 -9.999133,-26.23913 -10.479843,-41.10799 0,-8e-5 8e-6,-1.9e-4 8e-6,-2.6e-4 h -4.499706 c 0,1.2e-4 0,2e-4 0,2.6e-4 1.121672,31.3984 15.649386,58.63756 38.039447,76.02526 z m 5.447401,-7.30421 13.618511,-18.2605 c -2.854475,-2.24423 -5.5388,-4.72574 -8.016409,-7.40695 l 16.270115,-15.84969 c -0.556535,-0.5999 -1.098552,-1.21334 -1.624687,-1.83886 -2.899907,2.54095 -19.952697,17.48313 -17.052787,14.94212 -1.557173,-1.87347 -3.017049,-3.83012 -4.368824,-5.85885 l -3.693281,2.59426 c 1.439269,2.16709 2.993395,4.25511 4.651552,6.25304 l -3.410556,2.98846 c 0.879565,1.06119 1.786824,2.09809 2.720435,3.10937 l 3.254018,-3.16994 c 1.759466,1.905 3.617566,3.71438 5.563431,5.41689 l -11.642392,14.00708 c 1.215385,1.05859 2.459458,2.08362 3.730874,3.07357 z M 29.05577,225.66185 c 6.073859,-8.37345 13.108704,-15.51753 20.867808,-21.11438 L 67.117743,199.898 c -0.185341,-0.73094 -0.343876,-1.46287 -0.474395,-2.19448 l -17.456015,3.54949 c -9.361035,-1.54087 -18.77114,-4.82199 -27.920586,-10.08635 -1.4e-4,-8e-5 -2.91e-4,-1.6e-4 -4.24e-4,-2.6e-4 0,1.1e-4 0,1.9e-4 0,2.6e-4 0.05003,1.75473 0.149139,3.49672 0.29581,5.22449 7.807729,3.80938 15.745863,6.27608 23.635143,7.54074 -6.552536,4.68515 -12.608393,10.46003 -18.030646,17.1405 0.589288,1.5514 1.219441,3.08167 1.889126,4.58946 z m 64.798029,-11.24637 2.319573,-3.92165 c -6.932351,-4.75205 -13.53398,-13.89595 -11.911566,-19.32717 -1.6e-5,-2e-5 -1.6e-5,-2e-5 -1.6e-5,-2e-5 l -4.499676,-6e-5 c 0,6e-5 0,6e-5 0,8e-5 -1.44214,7.29947 5.886199,17.75055 14.091685,23.24882 z M 3.2676356,191.16631 75.26243,191.16658 c -1.261832,-9.16778 6.793283,-20.9261 16.271957,-27.17042 l -2.319536,-3.92166 c -10.15451,6.60218 -18.551826,18.62303 -18.542391,29.23536 L 8.1684974,185.02309 C 11.345448,150.5326 29.752904,121.63977 56.741322,105.17201 l -2.319544,-3.92166 C 24.57266,119.43302 4.8901575,152.10651 3.2676356,191.16631 Z m 10.0375784,-11.56827 4.419373,0.60193 c 1.801827,-12.5649 5.954395,-24.2824 11.993454,-34.6757 l 42.013802,26.19758 c 0.418627,-0.6859 0.857192,-1.36388 1.31436,-2.03241 L 32.420372,141.15239 c 7.506952,-11.43462 17.391293,-21.05088 28.960024,-28.1372 l -2.319546,-3.92165 c -24.269184,14.83593 -41.368976,40.23476 -45.755636,70.5045 z m 8.838694,1.20394 22.096746,3.00992 c 0.470511,-3.64138 1.281715,-7.22064 2.397064,-10.70019 l 21.114795,7.13506 c 0.237402,-0.72749 0.500115,-1.4525 0.786868,-2.1738 -3.517789,-1.42952 -24.20407,-9.83577 -20.686265,-8.4063 0.876043,-2.2726 1.881846,-4.49537 3.006585,-6.65722 l -3.935487,-2.15853 c -1.198748,2.31399 -2.271805,4.6959 -3.208356,7.13451 l -4.137255,-1.68123 c -0.498528,1.30238 -0.961239,2.62067 -1.386793,3.95342 l 4.222965,1.42699 c -0.797335,2.4927 -1.452745,5.03659 -1.955401,7.62064 L 23.003355,175.7557 c -0.331889,1.66559 -0.618806,3.34812 -0.859447,5.04628 z M 38.9025,139.74757 c 10.006507,1.67686 19.471817,4.78892 28.086192,9.09309 l 12.349393,13.36418 c 0.584271,-0.57141 1.181719,-1.12791 1.790988,-1.66812 L 69.486769,146.52961 c -3.266003,-9.24626 -5.273847,-19.21657 -5.786845,-29.59277 -1.375362,0.84429 -2.726089,1.72645 -4.050834,2.64496 0.899268,8.61648 2.802908,16.89905 5.573964,24.66366 -7.229721,-3.64446 -15.065132,-6.46748 -23.327013,-8.32853 -1.031047,1.24785 -2.029344,2.52521 -2.993541,3.83064 z m 40.859614,51.41901 4.499676,6e-5 c -1.622382,-5.43132 4.97931,-14.57522 11.911669,-19.32726 l -2.319536,-3.92165 c -8.205515,5.49824 -15.533918,15.94935 -14.091809,23.24885 z m -25.340336,-89.91623 37.112609,62.74581 c 4.739312,-3.12215 9.834503,-4.86585 14.298933,-4.2181 4.46448,-0.64775 9.55977,1.09598 14.29912,4.21828 l 2.31958,-3.92166 c -5.37594,-3.49532 -11.2444,-5.47186 -16.6187,-4.91662 -4.77709,-0.49358 -9.944614,1.01327 -14.809608,3.80904 L 61.59169,102.39624 c 13.164579,-7.05044 28.142763,-11.260469 44.24163,-11.918577 18.1115,0.740366 34.80462,5.976306 49.09265,14.694737 l 2.31957,-3.92165 C 142.32094,92.159281 124.85462,86.690488 105.83332,85.857636 86.812286,86.690488 69.346223,92.15911 54.421778,101.25035 Z m 14.065239,2.78603 1.874936,4.14959 c 10.821564,-5.05475 22.800095,-8.03636 35.471367,-8.468252 1.2e-4,0 2.5e-4,0 2.6e-4,0 l -2.6e-4,50.820322 c 0.69826,-0.0516 1.4009,-0.0695 2.1066,-0.0567 l 3.2806,-50.42382 c 14.24454,1.31512 27.49764,5.87164 39.06629,12.95804 l 2.31959,-3.92158 C 138.95497,100.74866 123.03502,95.745484 105.83332,95.097684 92.454417,95.601531 79.850922,98.739949 68.487017,104.03642 Z m 3.749842,8.29909 9.374587,20.74773 c 3.243265,-1.54483 6.60799,-2.80246 10.057574,-3.73527 l 5.660441,22.06764 c 0.71189,-0.19018 1.424768,-0.3536 2.137314,-0.48715 -0.734851,-3.80978 -5.056034,-26.21352 -4.321199,-22.40361 2.334766,-0.47476 4.701839,-0.79961 7.090394,-0.96338 l -0.29817,-4.58396 c -2.583975,0.19138 -5.139739,0.55051 -7.656432,1.06654 l -0.86424,-4.48071 c -1.349309,0.27887 -2.687183,0.59837 -4.012227,0.95759 l 1.132081,4.41352 c -2.474923,0.67013 -4.90538,1.4916 -7.280534,2.45314 l -6.549694,-16.99171 c -1.510991,0.60504 -3.001383,1.25205 -4.469866,1.93963 z m 43.691231,-7.09666 c 3.78903,9.81637 5.74351,19.75065 6.10007,29.48484 l -5.5594,17.34363 c 0.70854,0.24371 1.4147,0.51355 2.11719,0.80797 l 6.54982,-16.99165 c 6.35255,-7.23981 14.0663,-13.6363 22.83151,-18.94644 -1.37535,-0.84432 -2.77536,-1.65093 -4.19861,-2.41826 -7.06203,4.81615 -13.34328,10.35218 -18.66445,16.46737 -0.27145,-8.19562 -1.64621,-16.54532 -4.26131,-24.86502 -1.6222,-0.3408 -3.26094,-0.63538 -4.91482,-0.88244 z m -22.074167,62.67892 2.319536,3.92165 c 3.466174,-2.37603 7.014991,-3.65412 9.659861,-2.82122 2.64487,-0.8329 6.19377,0.44524 9.65998,2.82135 l 2.31958,-3.92166 c -4.10279,-2.74916 -8.42488,-4.26008 -11.97956,-3.51968 -3.55466,-0.7404 -7.87667,0.77049 -11.979397,3.51956 z m 63.391617,-66.66698 -37.1131,62.74559 c 9.47865,6.24438 17.53369,18.00275 16.27172,27.17045 h 4.4997 c 1.0216,-10.42283 -6.75472,-22.65603 -16.67945,-29.87211 l 35.37378,-53.08858 c 25.95574,17.90611 42.93932,47.83561 44.30115,82.96109 l 4.4997,4e-5 c -1.62225,-39.05995 -21.30454,-71.73357 -51.1535,-89.91648 z m 4.11486,13.89076 -2.72372,3.65214 c 9.34777,7.26851 17.27325,16.33781 23.31225,26.73121 l -42.01398,26.19731 c 0.41862,0.68587 0.81729,1.37982 1.19465,2.0803 l 43.29062,-23.74364 c 6.27488,12.29947 9.99911,26.23934 10.47975,41.10832 l 4.49972,4e-5 c -1.12151,-31.39856 -15.64921,-58.63786 -38.03929,-76.02568 z m -5.4474,7.30419 -13.61858,18.26053 c 2.85448,2.24424 5.53879,4.72571 8.01641,7.40691 l -16.27017,15.84966 c 0.55655,0.59985 1.09858,1.21334 1.6247,1.83886 2.8999,-2.54094 19.95274,-17.48308 17.05282,-14.94209 1.55715,1.87349 3.01704,3.83014 4.36881,5.85886 l 3.69328,-2.59421 c -1.43927,-2.16704 -2.99339,-4.25516 -4.65154,-6.25308 l 3.41057,-2.98843 c -0.87956,-1.06124 -1.78682,-2.09812 -2.72044,-3.10938 l -3.25402,3.16991 c -1.75945,-1.905 -3.61755,-3.71438 -5.56342,-5.41689 l 11.64244,-14.00703 c -1.21538,-1.05864 -2.45947,-2.08367 -3.73086,-3.07362 z m 26.69796,34.22599 c -6.07389,8.3734 -13.10876,15.51748 -20.86789,21.11424 l -17.19416,4.64945 c 0.1853,0.73093 0.34386,1.46294 0.47441,2.19448 l 17.456,-3.54938 c 9.36117,1.54091 18.77143,4.82211 27.92099,10.08662 -0.05,-1.75481 -0.14896,-3.49682 -0.29565,-5.2247 -7.80773,-3.80944 -15.74585,-6.27612 -23.63514,-7.5408 6.55255,-4.68514 12.60846,-10.46001 18.03069,-17.14049 -0.58928,-1.5514 -1.21942,-3.08169 -1.8891,-4.58942 z m -64.79808,11.24616 -2.31958,3.92166 c 6.93236,4.75211 13.534,13.89602 11.91149,19.32724 h 4.49968 c 1.44224,-7.29944 -5.88607,-17.75055 -14.09159,-23.2489 z"
       id="path1617"
       inkscape:connector-curvature="0" />
  </g>
</svg>
