<?xml version="1.0" encoding="UTF-8" standalone="no"?>
<!-- Created with Inkscape (http://www.inkscape.org/) -->

<svg
   xmlns:dc="http://purl.org/dc/elements/1.1/"
   xmlns:cc="http://creativecommons.org/ns#"
   xmlns:rdf="http://www.w3.org/1999/02/22-rdf-syntax-ns#"
   xmlns:svg="http://www.w3.org/2000/svg"
   xmlns="http://www.w3.org/2000/svg"
   xmlns:sodipodi="http://sodipodi.sourceforge.net/DTD/sodipodi-0.dtd"
   xmlns:inkscape="http://www.inkscape.org/namespaces/inkscape"
   width="160"
   height="160"
   viewBox="0 0 42.333332 42.333335"
   version="1.1"
   id="svg8"
   inkscape:version="0.92.4 (5da689c313, 2019-01-14)"
   sodipodi:docname="DB.svg">
  <defs
     id="defs2" />
  <sodipodi:namedview
     id="base"
     pagecolor="#ffffff"
     bordercolor="#666666"
     borderopacity="1.0"
     inkscape:pageopacity="0.0"
     inkscape:pageshadow="2"
     inkscape:zoom="5.09375"
     inkscape:cx="128.027"
     inkscape:cy="60.364869"
     inkscape:document-units="px"
     inkscape:current-layer="layer1"
     showgrid="false"
     units="px"
     inkscape:window-width="1920"
     inkscape:window-height="1051"
     inkscape:window-x="-9"
     inkscape:window-y="-9"
     inkscape:window-maximized="1" />
  <metadata
     id="metadata5">
    <rdf:RDF>
      <cc:Work
         rdf:about="">
        <dc:format>image/svg+xml</dc:format>
        <dc:type
           rdf:resource="http://purl.org/dc/dcmitype/StillImage" />
        <dc:title></dc:title>
      </cc:Work>
    </rdf:RDF>
  </metadata>
  <g
     inkscape:label="Ebene 1"
     inkscape:groupmode="layer"
     id="layer1"
     transform="translate(0,-254.66665)">
    <path
       inkscape:connector-curvature="0"
       style="fill:#7d9cad;fill-opacity:1;stroke-width:0.11219184"
       id="path3424"
       d="m 23.035401,277.41587 c -0.424421,-0.007 -0.794466,0.15397 -0.985625,0.62363 -0.327567,0.79096 0.485202,1.56891 0.764309,1.97036 0.206023,0.27934 0.473064,0.59608 0.61793,0.91179 0.085,0.20683 0.109543,0.42614 0.194803,0.64466 0.193846,0.53503 0.375376,1.13117 0.630641,1.63007 0.132944,0.25542 0.278365,0.52317 0.44811,0.75314 0.09796,0.13458 0.267166,0.19457 0.303706,0.41414 -0.169225,0.24295 -0.182461,0.60794 -0.279384,0.91221 -0.43641,1.37431 -0.266939,3.07679 0.351914,4.08602 0.193588,0.30399 0.655178,0.97297 1.273773,0.71698 0.545773,-0.21852 0.424431,-0.91171 0.581994,-1.51942 0.03627,-0.14697 0.01209,-0.24335 0.08458,-0.3405 v 0.0246 c 0.169742,0.34004 0.340067,0.66763 0.497632,1.00929 0.376549,0.5953 1.03075,1.21566 1.577041,1.62877 0.29025,0.21974 0.520976,0.59615 0.884826,0.73033 v -0.0369 h -0.02388 c -0.07309,-0.10917 -0.18198,-0.15802 -0.279165,-0.24279 -0.218208,-0.21904 -0.460118,-0.48682 -0.630641,-0.7299 -0.509233,-0.68076 -0.958563,-1.43515 -1.357915,-2.21338 -0.19462,-0.37788 -0.364132,-0.79094 -0.521954,-1.16772 -0.07257,-0.14525 -0.0726,-0.36479 -0.194145,-0.43758 -0.182441,0.26724 -0.448573,0.49853 -0.581776,0.82589 -0.230647,0.52355 -0.254778,1.16794 -0.3403,1.83714 -0.0482,0.0131 -0.02385,1.2e-4 -0.0482,0.0243 -0.387692,-0.0972 -0.521114,-0.49854 -0.667016,-0.83793 -0.363848,-0.86461 -0.425034,-2.25097 -0.109123,-3.24832 0.08449,-0.2549 0.44943,-1.05751 0.303269,-1.30072 -0.07334,-0.23203 -0.315782,-0.36461 -0.448987,-0.54781 -0.157307,-0.231 -0.327991,-0.52239 -0.436059,-0.77832 -0.291285,-0.68079 -0.437685,-1.43509 -0.752035,-2.11587 -0.145644,-0.31675 -0.40103,-0.64505 -0.606537,-0.93632 -0.230904,-0.32844 -0.48527,-0.55943 -0.667454,-0.94815 -0.06012,-0.13409 -0.145094,-0.35321 -0.04843,-0.49873 0.02383,-0.0975 0.07309,-0.13401 0.17026,-0.15844 0.15679,-0.13381 0.606126,0.0361 0.763431,0.10917 0.44911,0.18191 0.825074,0.35297 1.200584,0.60787 0.170002,0.12191 0.351997,0.35304 0.569944,0.41436 h 0.25528 c 0.387949,0.0845 0.824863,0.0235 1.188969,0.13346 0.642438,0.20656 1.224493,0.51057 1.746426,0.83902 1.58834,1.00948 2.898184,2.44498 3.783188,4.15941 0.145902,0.27934 0.207095,0.53483 0.340299,0.82611 0.254746,0.59711 0.570559,1.20533 0.824786,1.78849 0.25449,0.57166 0.49745,1.15484 0.861818,1.62986 0.181407,0.25495 0.90939,0.38873 1.236959,0.52261 0.24205,0.10917 0.618591,0.2065 0.837056,0.34008 0.41231,0.25496 0.823908,0.54726 1.212636,0.82741 0.193584,0.14596 0.800078,0.44972 0.836617,0.69331 l 2.18e-4,1.7e-4 c -0.970781,-0.0243 -1.722663,0.0728 -2.35318,0.34052 -0.181925,0.0729 -0.472752,0.0729 -0.497631,0.30393 0.09771,0.0971 0.109504,0.25523 0.195021,0.38959 0.145124,0.24322 0.399298,0.57104 0.630204,0.74175 0.254742,0.19468 0.509392,0.38854 0.776576,0.55877 0.472691,0.29313 1.006567,0.46264 1.466821,0.75466 0.267703,0.17002 0.533634,0.38879 0.80134,0.57169 0.132944,0.0972 0.217109,0.25559 0.387633,0.31577 v -0.0371 c -0.08551,-0.10917 -0.109228,-0.26708 -0.19371,-0.38938 -0.121025,-0.12073 -0.242642,-0.23083 -0.364184,-0.35192 -0.351928,-0.47422 -0.789147,-0.88744 -1.261062,-1.22798 -0.388469,-0.26826 -1.237902,-0.63319 -1.394949,-1.08181 0,0 -0.01288,-0.0131 -0.02475,-0.0248 0.266925,-0.0247 0.583007,-0.12218 0.837494,-0.1959 0.411792,-0.10917 0.787708,-0.0846 1.212198,-0.19369 0.194365,-0.049 0.388429,-0.1101 0.583311,-0.16983 v -0.11023 c -0.219503,-0.21843 -0.37637,-0.51086 -0.606757,-0.71742 -0.618077,-0.53492 -1.298148,-1.05748 -2.001485,-1.49596 -0.376548,-0.24329 -0.86177,-0.4006 -1.262159,-0.60785 -0.144863,-0.0731 -0.387172,-0.10905 -0.472434,-0.2314 -0.218465,-0.26745 -0.340325,-0.61963 -0.49763,-0.93632 -0.35141,-0.66814 -0.691481,-1.40979 -0.99417,-2.11631 -0.218202,-0.47396 -0.351663,-0.94787 -0.618587,-1.38596 -1.249887,-2.06783 -2.607917,-3.31984 -4.694088,-4.54837 -0.44885,-0.25568 -0.982445,-0.36491 -1.552061,-0.49873 -0.303724,-0.0131 -0.606597,-0.0364 -0.909805,-0.0484 -0.194369,-0.0855 -0.38885,-0.31681 -0.558335,-0.4262 -0.432298,-0.27349 -1.290611,-0.74653 -1.997979,-0.75708 z m 2.992367,3.00618 c -0.205765,0 -0.350993,0.025 -0.497413,0.0611 v 0.0243 h 0.02366 c 0.09796,0.19411 0.268042,0.32901 0.388288,0.49895 0.09771,0.19463 0.182677,0.38844 0.279603,0.58331 0.01196,-0.0118 0.02344,-0.0244 0.02344,-0.0244 0.171037,-0.12113 0.255938,-0.31553 0.255938,-0.60785 -0.07334,-0.0858 -0.08478,-0.17024 -0.145938,-0.25572 -0.07256,-0.1214 -0.23041,-0.18217 -0.327592,-0.2796 z" />
    <path
       style="fill:#241e16;fill-opacity:1;stroke:#000000;stroke-width:0.16946024px;stroke-linecap:butt;stroke-linejoin:miter;stroke-opacity:1"
       d="m 4.9564804,261.15993 c 4.991348,-2.4793 10.0344566,-2.21782 14.6713026,0 2.160946,8.47964 -1.599487,12.90081 -7.285749,16.00204 -6.9927866,-3.81259 -9.6191606,-9.08441 -7.3855536,-16.00204 z"
       id="path830"
       inkscape:connector-curvature="0"
       sodipodi:nodetypes="cccc" />
    <path
       sodipodi:nodetypes="cccc"
       inkscape:connector-curvature="0"
       id="path835"
       d="m 6.2565614,262.14076 c 4.2344236,-2.10335 8.5127596,-1.88149 12.4464436,0 1.83324,7.19373 -1.356929,10.94444 -6.180888,13.57538 -5.9323516,-3.23443 -8.1604446,-7.70681 -6.2655556,-13.57538 z"
       style="fill:#fabb69;fill-opacity:1;stroke:#000000;stroke-width:0.1437621px;stroke-linecap:butt;stroke-linejoin:miter;stroke-opacity:1" />
    <path
       style="fill:#61513c;fill-opacity:1;stroke:none;stroke-width:0.16946024px;stroke-linecap:butt;stroke-linejoin:miter;stroke-opacity:1"
       d="m 12.508376,261.62569 -0.299414,0.63209 c -2.8234586,3.27515 -4.3879166,6.52452 -10e-7,10.6791 l 0.432488,1.76323 0.465756,-0.13306 v -1.53035 c 4.979323,-5.98543 1.822166,-8.1477 -0.266146,-10.8122 z"
       id="path833"
       inkscape:connector-curvature="0"
       sodipodi:nodetypes="cccccccc" />
    <path
       style="fill:none;stroke:none;stroke-width:0.16946024px;stroke-linecap:butt;stroke-linejoin:miter;stroke-opacity:1"
       d="m 12.20896,272.93688 0.399221,-0.59883 0.499024,0.69865"
       id="path837"
       inkscape:connector-curvature="0"
       sodipodi:nodetypes="ccc" />
  </g>
</svg>
