<?xml version="1.0" encoding="UTF-8" standalone="no"?>
<!-- Created with Inkscape (http://www.inkscape.org/) -->

<svg
   xmlns:dc="http://purl.org/dc/elements/1.1/"
   xmlns:cc="http://creativecommons.org/ns#"
   xmlns:rdf="http://www.w3.org/1999/02/22-rdf-syntax-ns#"
   xmlns:svg="http://www.w3.org/2000/svg"
   xmlns="http://www.w3.org/2000/svg"
   xmlns:sodipodi="http://sodipodi.sourceforge.net/DTD/sodipodi-0.dtd"
   xmlns:inkscape="http://www.inkscape.org/namespaces/inkscape"
   width="160"
   height="160"
   viewBox="0 0 42.333332 42.333335"
   version="1.1"
   id="svg8"
   inkscape:version="0.92.4 (5da689c313, 2019-01-14)"
   sodipodi:docname="Java.svg">
  <defs
     id="defs2" />
  <sodipodi:namedview
     id="base"
     pagecolor="#ffffff"
     bordercolor="#666666"
     borderopacity="1.0"
     inkscape:pageopacity="0.0"
     inkscape:pageshadow="2"
     inkscape:zoom="6.78125"
     inkscape:cx="80"
     inkscape:cy="64.643467"
     inkscape:document-units="px"
     inkscape:current-layer="layer1"
     showgrid="false"
     units="px"
     inkscape:window-width="2400"
     inkscape:window-height="1321"
     inkscape:window-x="2391"
     inkscape:window-y="-9"
     inkscape:window-maximized="1" />
  <metadata
     id="metadata5">
    <rdf:RDF>
      <cc:Work
         rdf:about="">
        <dc:format>image/svg+xml</dc:format>
        <dc:type
           rdf:resource="http://purl.org/dc/dcmitype/StillImage" />
        <dc:title></dc:title>
      </cc:Work>
    </rdf:RDF>
  </metadata>
  <g
     inkscape:label="Ebene 1"
     inkscape:groupmode="layer"
     id="layer1"
     transform="translate(0,-254.66665)">
    <path
       style="fill:#fabb69;fill-opacity:1;stroke:none;stroke-width:0.01591136;stroke-linecap:butt;stroke-linejoin:miter;stroke-miterlimit:4;stroke-dasharray:none;stroke-opacity:1"
       d="m 23.577723,257.44633 c 0.469578,0.27747 0.551735,4.3823 -2.345457,6.70436 -2.35119,1.88445 -5.238303,3.84263 -5.973418,5.71187 -1.28063,3.25638 4.730006,8.13704 4.842329,7.88429 0,0 -4.228834,-5.16128 -2.73157,-7.38765 0.98476,-1.46431 3.532353,-3.81496 5.525223,-6.08394 3.009778,-3.42679 1.005026,-6.79919 0.682893,-6.82893 z"
       id="path826"
       inkscape:connector-curvature="0"
       sodipodi:nodetypes="csscssc" />
    <path
       style="fill:#fabb69;fill-opacity:1;stroke:none;stroke-width:0.42098781px;stroke-linecap:butt;stroke-linejoin:miter;stroke-opacity:1"
       d="m 28.109648,265.20646 c -0.04355,-0.2613 -7.011068,1.64695 -7.977429,5.8977 -0.486524,2.1401 1.593168,3.70358 2.230652,5.2432 0.234032,0.56522 -0.661773,3.10203 0.06635,1.83407 4.23306,-2.31238 -0.01268,-5.5604 -0.310406,-7.79118 0.328237,-2.3391 6.038172,-5.15131 5.990832,-5.18379 z"
       id="path828"
       inkscape:connector-curvature="0"
       sodipodi:nodetypes="cssccc" />
    <path
       style="fill:#6c96ad;fill-opacity:1;stroke:none;stroke-width:0.42098781px;stroke-linecap:butt;stroke-linejoin:miter;stroke-opacity:1"
       d="m 15.755497,277.83998 c 0.420256,0.17841 -6.6761146,0.51552 -6.4564404,1.83139 0.6321479,3.78666 17.8594454,0.31367 16.5756684,0.62082 l 1.55203,-0.86913 c 0,0.0318 -6.482251,0.67587 -9.498537,0.76103 -2.540835,0.0717 -6.220266,-0.38768 -5.83551,-0.94732 0,0 1.042963,-0.57579 1.596149,-0.79202 0.668506,-0.26133 2.06664,-0.60477 2.06664,-0.60477 z"
       id="path830"
       inkscape:connector-curvature="0"
       sodipodi:nodetypes="csccscac" />
    <path
       style="fill:#6c96ad;fill-opacity:1;stroke:none;stroke-width:0.42098781px;stroke-linecap:butt;stroke-linejoin:miter;stroke-opacity:1"
       d="m 28.668378,277.99519 c 0,-0.15211 4.139592,0.0288 3.573501,2.53308 -0.512822,2.26856 -4.256394,4.17169 -4.256394,4.17169 0.110538,0.18422 6.62659,-1.91362 5.959791,-4.59401 -0.852848,-3.42827 -5.410203,-2.54402 -5.276898,-2.11076 z"
       id="path832"
       inkscape:connector-curvature="0"
       sodipodi:nodetypes="cscsc" />
    <path
       style="fill:#6c96ad;fill-opacity:1;stroke:none;stroke-width:0.42098781px;stroke-linecap:butt;stroke-linejoin:miter;stroke-opacity:1"
       d="m 13.7689,282.15462 c 0,0 -2.387745,1.02028 -1.800355,1.55204 -0.331675,1.58881 13.361802,2.11549 13.947314,-0.0863 0.0688,-0.25872 -0.516938,-0.28786 -0.97235,-0.65862 -7.89e-4,0.006 -4.226939,0.8194 -6.363317,0.77601 -1.603735,-0.0325 -4.891095,-0.49616 -4.749211,-0.77601 z"
       id="path834"
       inkscape:connector-curvature="0"
       sodipodi:nodetypes="ccscacc" />
    <path
       style="fill:#6c96ad;fill-opacity:1;stroke:none;stroke-width:0.42098781px;stroke-linecap:butt;stroke-linejoin:miter;stroke-opacity:1"
       d="m 14.638037,286.00365 c 0,0 -1.488161,0.57562 -1.303706,1.11746 1.379642,4.05261 12.661084,1.48415 12.29207,0.86914 l -1.986597,-1.11745 c 0.127833,0.44743 -6.35859,1.5917 -8.753441,-0.18624 -0.194514,-0.14448 -0.248326,-0.68291 -0.248326,-0.68291 z"
       id="path836"
       inkscape:connector-curvature="0"
       sodipodi:nodetypes="csccsc" />
    <path
       style="fill:#6c96ad;fill-opacity:1;stroke:none;stroke-width:0.42098781px;stroke-linecap:butt;stroke-linejoin:miter;stroke-opacity:1"
       d="m 11.844385,288.92146 c -0.287205,-0.0684 -1.8764512,0.009 -3.2377455,0.43517 -1.9960001,0.62449 -3.7160848,1.74789 -1.8839506,2.20329 10.3163601,2.5642 16.6200351,1.61474 21.5708061,0.27056 1.310543,-0.35586 2.41082,-0.91252 3.603102,-1.23282 0.313415,-0.70985 -0.01268,-1.06439 -0.434567,-1.36579 0.19805,2.00928 -10.435121,3.19608 -16.1411,2.60742 -11.9134163,-1.22907 -4.2809,-2.93957 -3.476545,-2.91783 z"
       id="path838"
       inkscape:connector-curvature="0"
       sodipodi:nodetypes="csssccsc" />
    <path
       style="fill:#6c96ad;fill-opacity:1;stroke:none;stroke-width:0.42098781px;stroke-linecap:butt;stroke-linejoin:miter;stroke-opacity:1"
       d="m 11.409815,293.51549 c 2.584171,0.73223 9.096263,1.7007 13.595775,1.05536 3.009381,-0.43162 7.587889,-1.21795 8.629278,-3.16614 1.481185,-2.77093 -1.429327,1.70077 -9.125927,2.35908 -4.831686,0.41327 -17.3254995,-1.44589 -13.099126,-0.2483 z"
       id="path840"
       inkscape:connector-curvature="0"
       sodipodi:nodetypes="sssss" />
  </g>
</svg>
